<?xml version="1.0" encoding="utf-8"?>
<!-- Generator: Adobe Illustrator 16.0.0, SVG Export Plug-In . SVG Version: 6.00 Build 0)  -->
<!DOCTYPE svg PUBLIC "-//W3C//DTD SVG 1.1//EN" "http://www.w3.org/Graphics/SVG/1.1/DTD/svg11.dtd">
<svg version="1.1" id="圖層_1" xmlns="http://www.w3.org/2000/svg" xmlns:xlink="http://www.w3.org/1999/xlink" x="0px" y="0px"
	 width="946.189px" height="287.884px" viewBox="0 0 946.189 287.884" enable-background="new 0 0 946.189 287.884"
	 xml:space="preserve">
<g>
	<g>
		<path fill="#2B883A" d="M379.421,251.373c0.194,1.654,0.287,2.963,1.217,3.705c0.645,0.385,1.429,0.494,2.351,0.33
			c0.931-0.218,1.721-0.694,2.293-1.48c0.995-1.369,0.383-7.102-1.04-15.37c-0.175-1.018-0.782-1.798-1.593-2.056
			c-0.938-0.297-1.642-0.185-2.532,0.166c-1.1,0.432-1.845,1.088-2.08,2.021c-0.246,0.979,0.253,4.024,0.559,6.363l0.048,0.367
			l-11.988,1.104c8.812-10.457,16.675-20.58,19.771-27.275c0.158-0.34,0.25-1.104,0.075-1.645c-0.232-0.717-0.784-1.232-1.607-1.562
			c-0.824-0.328-1.663-0.301-2.516,0.083c-0.909,0.384-1.662,1.097-2.256,2.137c-2.523,4.33-5.292,8.494-8.305,12.494l-0.328,0.406
			c-1.33-1.635-2.953-3.617-3.698-4.434c6.488-8.932,9.67-14.273,9.67-16.029c0-0.941-0.621-1.413-1.391-1.808
			c-0.8-0.41-1.703-0.454-2.573-0.214c-0.848,0.232-1.693,1.025-2.3,2.104c-2.406,4.271-4.854,8.248-7.358,11.918
			c-0.156-0.053-0.257-0.107-0.301-0.162c-0.781-0.549-1.686-0.741-2.719-0.576c-0.876,0.219-1.618,0.522-2.292,1.479
			c-0.601,0.853-0.836,1.698-0.821,2.466c0.048,0.877,0.49,1.59,1.327,2.137c2.294,1.948,5.423,5.25,7.995,8.607
			c-3.033,3.408-6.248,7.894-8.895,10.533l-0.815,0.063h-1.416c-1.067,0.055-2.009,0.465-2.827,1.232
			c-0.641,0.713-1.021,1.508-1.138,2.384c-0.029,0.986,0.242,1.727,0.81,2.22c0.613,0.549,1.486,0.768,2.62,0.656l9.093-0.904
			l0.967-0.101c-2.106,10.639-4.104,20.677-6.236,31.45c-0.228,1.148-0.104,2.132,0.446,2.793c0.5,0.602,1.303,0.952,2.237,0.904
			c1.065-0.055,1.913-0.41,2.611-0.986c0.862-0.711,1.403-1.617,1.62-2.711c2.175-10.989,4.221-21.27,6.38-32.176L379.421,251.373z"
			/>
		<path fill="#2B883A" d="M359.642,259.484c0.206-1.039,0.163-1.916-0.412-2.548c-0.454-0.498-1.103-0.823-2.003-0.823
			c-0.902,0-1.682,0.357-2.345,0.906c-0.665,0.547-1.133,1.369-1.404,2.465c-2.029,7.727-3.881,13.438-6.066,18.862
			c-0.428,1.042-0.491,1.917-0.187,2.63c0.37,0.658,0.934,1.16,1.739,1.314c0.925,0.18,1.657,0.011,2.43-0.492
			c1.38-0.898,3.952-7.629,8.184-21.986L359.642,259.484z"/>
		<path fill="#2B883A" d="M377.715,256.679c-0.797,0.124-1.461,0.479-2.16,1.232c-0.505,0.543-0.794,1.343-0.889,2.385l-0.316,9.342
			c-0.028,0.986,0.242,1.727,0.811,2.221c0.591,0.385,1.278,0.458,2.085,0.41c0.898-0.053,1.715-0.379,2.291-1.037
			c0.518-0.656,0.855-1.36,0.908-2.497l0.316-9.345c0.029-0.986-0.234-1.734-0.811-2.218
			C379.412,256.72,378.689,256.527,377.715,256.679z"/>
		<path fill="#2B883A" d="M397.985,268.666c0.946-0.961,1.442-1.904,1.488-2.836c0.033-0.875-0.271-1.623-0.911-2.247
			c-0.764-0.569-1.58-0.785-2.45-0.647c-0.926,0.139-1.856,0.66-2.79,1.564c-5.344,5.767-10.33,9.023-17.728,12.535
			c-2.39,0.918-3.479,2.516-2.834,4.688c0.253,0.852,0.845,1.421,1.625,1.692c1.946,0.677,6.327-1.517,13.322-6.192
			C391.154,274.855,393.656,272.926,397.985,268.666z"/>
		<path fill="#2B883A" d="M431.99,238.689h-9.581h-0.927l9.895-22.154c0.396-1.008,0.278-2.26-0.333-3.369
			c-0.661-1.199-1.646-1.779-2.99-1.727h-25.16c-1.305-0.006-2.319,0.063-3.448,0.719c-1.308,0.713-2.033,1.858-2.549,3.063
			l-5.631,12.412c-0.429,1.041-0.358,2.082,0.214,3.123c0.682,1.042,1.602,1.59,2.757,1.645h23.327l-2.83,6.289h-24.236
			c-1.056,0-1.921,0.301-2.595,0.904c-0.686,0.658-1.144,1.426-1.372,2.301c-0.195,0.986-0.048,1.781,0.444,2.384
			c0.446,0.548,1.191,0.851,2.237,0.903h16.749l-6.305,31.85c-0.206,1.043-0.603,1.781-1.189,2.219
			c-0.465,0.385-0.947,0.576-1.447,0.576c-0.667,0-2.056-0.289-4.745-0.826c-1.404-0.281-2.348-0.059-2.948,0.162
			c-0.898,0.33-1.627,0.975-2.049,1.897c-0.399,0.873-0.531,1.867-0.295,2.674c0.53,1.808,4.634,2.716,10.836,2.997
			c1.177,0.055,2.655-0.191,3.73-0.85c2.626-1.479,3.949-4,4.68-7.123l3.661-18.494c2.343,9.205,5.807,16.434,10.268,21.782
			c0.727,0.872,1.489,1.314,2.489,1.314c0.888,0,1.82-0.357,2.794-1.069c0.862-0.713,1.414-1.533,1.654-2.465
			c0.15-1.039-0.138-1.973-0.863-2.795c-4.438-5.643-7.664-11.369-9.68-17.178c-1.439-4.066-2.253-8.965-2.461-14.672h16.612
			c1,0,1.842-0.328,2.528-0.986c0.685-0.657,1.142-1.424,1.372-2.301c0.195-0.986,0.046-1.779-0.444-2.384
			C433.713,238.964,432.99,238.689,431.99,238.689z M400.039,226.234c-0.438,0-0.67-0.393-0.67-0.699
			c0-0.383,0.218-0.783,0.411-1.355l1.823-4.109c0.317-0.745,0.561-1.314,1.008-1.727c0.443-0.408,1.272-0.74,2.063-0.74h17.745
			c0.544,0.055,0.924,0.385,1.138,0.986c0.124,0.493-0.159,1.045-0.409,1.645l-2.78,6H400.039z"/>
		<path fill="#2B883A" d="M394.652,260.595c0.81,0.118,1.641-0.043,2.492-0.482c0.855-0.496,1.615-1.389,1.953-2.26
			c0.43-1.379-0.708-3.781-4.337-9.174c-0.56-0.832-1.18-1.293-2.197-1.293c-0.824,0-1.567,0.168-2.441,0.892
			c-0.83,0.687-1.233,1.538-1.401,2.333c-0.231,0.912-0.049,1.773,0.546,2.58c1.509,2.459,2.463,3.361,3.55,5.651
			C393.238,259.783,393.85,260.367,394.652,260.595z"/>
		<path fill="#2B883A" d="M431.666,248.126c-0.791-0.493-1.63-0.602-2.518-0.328c-0.876,0.22-1.697,0.85-2.457,1.89
			c-1.425,1.864-2.903,3.398-5.778,6.14c-0.896,0.877-1.436,1.781-1.62,2.712c-0.108,0.821,0.13,1.566,0.727,2.218
			c0.648,0.707,1.725,1.125,2.573,0.949c2.804-0.58,4.708-2.756,9.312-8.895c0.75-0.986,1.073-1.918,0.97-2.795
			C432.814,249.195,432.412,248.566,431.666,248.126z"/>
		<path fill="#2B883A" d="M593.702,233.22c0.549,0.878,1.322,1.513,2.342,1.645c0.871,0.113,1.826-0.125,2.729-0.74
			c0.963-0.657,1.586-1.424,1.873-2.301c0.248-0.986,0.135-1.945-0.348-2.877c-1.4-2.466-3.207-5.123-5.42-7.973
			c-2.236-3.014-3.83-5.068-4.777-6.165c-0.727-0.822-1.596-1.204-2.605-1.15c-0.9,0.056-1.787,0.466-2.66,1.233
			c-0.83,0.821-1.303,1.672-1.422,2.547c-0.141,0.986,0.186,1.863,0.979,2.631C587.864,223.851,590.967,228.235,593.702,233.22z"/>
		<path fill="#2B883A" d="M575.745,237.66c-0.102,0.879,0.242,1.726,1.078,2.548c3.764,4.001,6.842,7.945,9.238,11.837
			c0.547,0.876,1.338,1.555,2.424,1.645c0.994,0.082,1.879-0.199,2.762-0.906c0.969-0.775,1.49-1.422,1.721-2.383
			c0.289-1.193-1.039-3.727-3.834-7.563c-3.352-4.109-5.6-6.794-6.736-8.055c-0.748-0.711-1.721-1.17-2.705-1.068
			c-0.932,0.096-1.785,0.604-2.594,1.314C576.258,235.906,575.872,236.57,575.745,237.66z"/>
		<path fill="#2B883A" d="M566.211,261.415c0.855,0.163,1.748,0,2.68-0.493c0.996-0.548,1.666-1.261,2.006-2.137
			c0.395-1.151,0.389-2.11-0.014-2.879c-2.588-4.602-5.791-10.027-9.607-16.273c0.064-0.33,0.119-0.603,0.162-0.822h9.664
			c1.055,0,1.986-0.355,2.793-1.068c0.809-0.712,1.311-1.563,1.504-2.549c0.207-1.039,0.049-1.917-0.479-2.63
			c-0.557-0.546-1.359-0.849-2.402-0.903h-9.664c0.879-4.439,1.746-8.822,2.604-13.152c3.16-0.547,6.268-1.232,9.32-2.055
			c1.297-0.382,2.25-0.986,2.857-1.808c0.662-0.822,0.93-1.753,0.803-2.796c-0.016-1.039-0.432-1.752-1.242-2.137
			c-0.814-0.382-1.83-0.438-3.051-0.164c-6.156,1.645-14.311,2.85-24.461,3.617c-1.232,0.055-2.281,0.439-3.143,1.15
			c-0.809,0.713-1.287,1.59-1.438,2.631c-0.152,1.041,0.098,1.891,0.746,2.547c0.59,0.658,1.535,0.933,2.836,0.822
			c3.209-0.218,6.313-0.465,9.311-0.74c-0.791,4.002-1.59,8.029-2.393,12.084h-11.412c-1.057,0-2.012,0.328-2.861,0.986
			c-0.809,0.713-1.309,1.561-1.504,2.547c-0.207,1.043-0.047,1.92,0.479,2.631c0.535,0.658,1.359,0.986,2.471,0.986h10.664
			c-4.695,7.727-10.775,15.289-18.238,22.686c-0.895,0.878-1.424,1.863-1.584,2.96c-0.008,0.876,0.313,1.644,0.961,2.301
			c0.756,0.657,1.598,0.905,2.52,0.74c1.92-0.165,6.475-4.933,13.662-14.303c0.242-0.382,0.506-0.739,0.793-1.067
			c-2.082,10.52-4.176,21.097-6.279,31.727c-0.238,1.204-0.096,2.164,0.43,2.877c0.592,0.656,1.389,0.986,2.387,0.986
			c1.066-0.055,1.998-0.41,2.795-1.068c0.861-0.713,1.408-1.645,1.637-2.795c2.256-11.396,4.512-22.794,6.768-34.193
			c1.973,3.508,3.604,6.77,4.896,9.781C564.624,260.591,565.297,261.25,566.211,261.415z"/>
		<path fill="#2B883A" d="M612.747,208.563c-1.055,0-2.01,0.328-2.861,0.985c-0.686,0.658-1.166,1.535-1.438,2.631
			c-3.123,15.781-6.252,31.591-9.387,47.426l-32.221,4.521c-1.266,0.219-2.307,0.713-3.125,1.479
			c-0.641,0.713-0.992,1.645-1.053,2.795c-0.029,0.986,0.313,1.782,1.027,2.383c0.623,0.496,1.563,0.658,2.818,0.496l31.104-4.357
			c-1.105,5.588-2.223,11.234-3.352,16.932c-0.238,1.204-0.094,2.164,0.43,2.877c0.592,0.656,1.389,0.986,2.389,0.986
			c1.064-0.055,1.996-0.41,2.793-1.068c0.863-0.713,1.408-1.645,1.637-2.795c1.182-5.973,2.369-11.972,3.563-18l5.328-0.822
			c1.266-0.218,2.307-0.711,3.127-1.48c0.641-0.711,0.98-1.588,1.02-2.629s-0.275-1.836-0.943-2.385
			c-0.615-0.547-1.572-0.766-2.869-0.658l-4.213,0.658c3.068-15.506,6.129-30.959,9.176-46.357c0.207-1.041-0.01-1.918-0.645-2.631
			C614.514,208.891,613.747,208.563,612.747,208.563z"/>
		<path fill="#2B883A" d="M656.913,248.921c0.229-0.877,0.186-1.781-0.129-2.713c-0.492-0.877-1.141-1.397-1.939-1.563
			c-0.99-0.055-1.984,0.192-2.98,0.74c-1.02,0.656-2.332,1.397-3.938,2.219l3.043-15.371h5.664c1.055,0,1.986-0.355,2.795-1.068
			c0.807-0.711,1.309-1.561,1.504-2.547c0.207-1.041,0.047-1.918-0.48-2.631c-0.557-0.547-1.359-0.85-2.402-0.904h-5.664
			l2.553-12.904c0.24-1.205,0.072-2.191-0.496-2.96c-0.594-0.656-1.389-0.986-2.389-0.986c-1.066,0.056-1.996,0.411-2.793,1.069
			c-0.809,0.713-1.332,1.672-1.57,2.877l-2.555,12.904h-7.414c-1.057,0-2.01,0.328-2.861,0.986
			c-0.809,0.713-1.309,1.563-1.504,2.549c-0.205,1.041-0.047,1.918,0.479,2.63c0.537,0.657,1.359,0.985,2.471,0.985h7.414
			l-3.791,19.152c-3.314,1.314-6.568,2.465-9.764,3.451c-1.131,0.385-2.051,0.953-2.508,1.727c-0.514,0.874-0.748,1.852-0.568,2.877
			c0.154,0.891,0.699,1.672,1.51,2.055s1.756,0.385,2.832,0c2.34-0.875,4.674-1.725,7.002-2.549l-3.449,17.428
			c-0.207,1.041-0.613,1.836-1.221,2.383c-0.654,0.492-2.236,0.492-4.75,0c-2.201-0.658-4.205,0.158-5.303,2.385
			c-0.424,0.86-0.568,1.877-0.205,2.711c0.574,1.314,2.543,2.164,5.912,2.548c3.178,0.218,5.568-0.081,7.176-0.903
			c2.826-1.645,4.58-4.057,5.266-7.234l4.457-22.52C652.911,252.73,656.442,250.455,656.913,248.921z"/>
		<path fill="#2B883A" d="M711.602,218.425c-0.537-0.633-1.359-0.849-2.402-0.904h-19.662c0.359-1.808,0.711-3.588,1.059-5.342
			c0.205-1.041,0.045-1.902-0.646-2.631c-0.584-0.613-1.307-0.913-2.305-0.985c-1.053-0.077-2.166,0.29-2.861,0.985
			c-0.67,0.673-1.518,3.316-2.494,7.973h-17.078c-1.057,0-2.01,0.33-2.861,0.986c-0.809,0.713-1.309,1.563-1.504,2.549
			c-0.207,1.041-0.047,1.918,0.479,2.631c0.537,0.656,1.359,0.985,2.471,0.985h17.08c-0.695,3.507-1.416,7.151-2.164,10.933h-14.414
			c-1.055,0-2.004,0.301-2.844,0.904c-0.797,0.657-1.305,1.534-1.521,2.629c-0.195,0.988-0.029,1.838,0.496,2.549
			c0.525,0.713,1.342,1.068,2.453,1.068h30.16c1.053,0,1.678,0.22,1.869,0.657c0.203,0.657-1.496,3.343-5.094,8.056
			c-3.203,4.109-7.359,8.274-12.471,12.494c-3.842-4.164-7.338-9.644-10.492-16.439c-0.527-0.986-1.355-1.711-2.309-1.809
			c-0.875-0.089-1.918,0.188-2.813,0.74c-0.99,0.611-1.588,1.425-1.871,2.301c-0.361,0.986-0.281,1.973,0.246,2.959
			c3.719,6.467,7.551,11.947,11.492,16.44c-1.762,1.041-3.617,2.136-5.564,3.286c-4.723,2.522-11.346,5.125-19.875,7.809
			c-1.121,0.33-2.123,0.791-2.676,1.727c-0.527,0.898-0.813,1.863-0.752,2.959c0.027,0.986,0.463,1.727,1.311,2.221
			c0.791,0.492,1.773,0.574,2.951,0.245c7.854-2.355,14.82-5.151,20.904-8.383c2.879-1.644,5.666-3.37,8.357-5.179
			c6.76,6.246,13.156,10.686,19.191,13.316c1.145,0.383,2.307,0.434,3.316,0.082c0.979-0.343,1.826-1.098,2.588-2.138
			c0.594-1.041,0.789-2.028,0.586-2.958c-0.184-1.041-0.893-1.81-2.127-2.303c-6.957-3.014-12.844-6.52-17.662-10.521
			c8.416-7.727,15.168-15.605,20.332-23.59c2.129-3.291,2.643-4.572,2.641-5.343c-0.004-1.04-0.371-1.917-1.063-2.63
			c-0.691-0.712-1.729-1.096-3.104-1.15h-14.996c0.727-3.671,1.447-7.316,2.164-10.933h19.66c1.055,0,1.986-0.355,2.795-1.068
			c0.807-0.712,1.309-1.562,1.504-2.548C712.288,220.015,712.174,219.1,711.602,218.425z"/>
		<path fill="#2B883A" d="M521.217,211.768h-58.402c-1.511-0.005-2.554,0.411-3.692,1.397c-1.085,0.986-1.779,2.109-2.084,3.369
			l-5.354,27.102c-0.349,1.479-0.082,2.902,0.619,4.027c0.552,0.885,1.64,1.645,3.091,1.645h16.631
			c-8.047,7.139-17.307,12.605-27.782,16.027c-1.132,0.385-1.979,1.016-2.54,1.892c-0.563,0.876-0.758,1.862-0.586,2.958
			c0.182,1.041,0.624,1.755,1.326,2.138c2.805,0.986,10.126-2.055,21.968-9.124l3.133-2.255c-1.877,7.37-6.534,13.007-13.969,16.909
			c-0.941,0.549-1.811,0.934-2.577,1.232c-1.438,0.561-2.301,1.322-2.788,2.303c-0.428,0.859-0.642,1.848-0.387,2.795
			c0.286,1.059,0.86,1.69,1.775,1.973c2.095,0.643,5.821-0.934,11.191-4.768c7.416-5.48,12.24-12.878,14.474-22.193l0.98-4.961
			c2.305-2.027,4.051-3.705,5.232-4.926h0.16h6.564c0.148,0.183,0.334,0.418,0.424,0.574c1.682,2.436,3.582,4.75,5.674,6.959
			c-1.766,8.92-3.545,17.916-5.346,27.012c-0.238,1.204-0.125,2.189,0.43,2.877c0.59,0.733,1.389,1.041,2.387,0.986
			c1.113-0.059,1.998-0.41,2.795-1.068c0.861-0.713,1.408-1.645,1.637-2.795c1.398-7.063,2.803-14.158,4.209-21.264l0.658,0.609
			c4.17,3.343,8.715,6.193,13.637,8.549c1.111,0.548,2.207,0.631,3.283,0.246c0.953-0.328,1.838-1.013,2.656-2.055
			c0.582-0.986,0.834-1.973,0.752-2.959c-0.184-1.04-0.859-1.836-2.027-2.383c-8.652-3.797-15.848-9.018-21.236-15.289h15.662
			c1.398-0.055,2.789-0.629,4.174-1.727c1.449-1.15,2.32-2.467,2.613-3.945l5.355-27.102c0.215-1.369-0.176-2.455-0.85-3.287
			C524.245,212.203,522.985,211.764,521.217,211.768z M463.328,221.384c0.117-0.875,0.48-1.588,1.089-2.137
			c0.409-0.383,1.146-0.602,2.213-0.658h20.986l-1.244,6.33l-0.436,2.205h-23.742L463.328,221.384z M459.973,241.746
			c-0.313-0.383-0.405-1.041-0.275-1.972l1.15-5.827h23.741l-1.68,8.539h-21C461.021,242.486,460.375,242.24,459.973,241.746z
			 M513.125,241.746c-0.627,0.529-1.424,0.74-2.313,0.74h-20.656l1.68-8.539h0.043h23.371l-1.15,5.827
			C513.932,240.681,513.645,241.308,513.125,241.746z M517.731,221.384l-1.135,5.74h-23.367h-0.045l0.436-2.205l1.244-6.33h20.67
			c0.889,0,1.557,0.275,2.004,0.823C517.85,219.796,517.915,220.454,517.731,221.384z"/>
	</g>
	<g>
		<path fill="#00488E" d="M406.741,89.92c0,0,2.108-11.52,1.065-29.58c-1.158-20.033-19.154-58.737-73.805-60.28
			C255.815-2.148,187.2,56.936,182.216,155.947c-2.125,42.208,28.355,78.592,95.587,76.518
			c60.875-1.879,101.482-38.136,116.016-91.592h-66.972c0,0-9.842,34.98-41.351,36.538c-25.59,1.266-30.099-13.817-30.475-29.913
			c-0.511-21.849,14.118-95.509,63.92-92.48c26.108,1.588,19.383,34.902,19.383,34.902H406.741z"/>
		<path fill="#00488E" d="M155.716,170.957H86.054l8.252-30.883h62.785c2.595-18.212,7.28-34.98,13.744-50.154h-63.127l7.397-27.684
			h71.181c15.41-23.302,35.722-41.258,59.01-53.091c1.901-0.966,1.187-3.845-0.946-3.845H92.363l0,0H67.693
			c-8,0-15.002,5.376-17.067,13.105L0.608,205.599c-2.997,11.218,5.457,22.227,17.067,22.227h27.511l0,0h138.244
			c1.713,0,2.403-2.17,1.028-3.192C166.491,211.274,157.075,192.15,155.716,170.957z"/>
	</g>
	<path fill="#2B883A" d="M591.618,104.863c-19.863,8.341-33.74,21.848-38.781,42.181c-5.447,21.979,7.236,41.342,38.871,41.873
		c18.725,0.314,39.701-6.021,50.457-14.575l1.539-1.192l-2.801,15.906h46.307c0.361-7.9,0.389-18.212,4.781-34.512
		c4.52-16.768,13.428-46.259,14.465-49.681H591.618z M655.231,131.222c-1.016,3.117-1.723,5.462-3.547,9.089
		c-5.979,11.884-16.945,17.71-34.41,18.82c-15.9,1.011-21.006-8.034-18.859-15.783c4.576-16.521,27.652-21.863,58.752-21.863
		C657.167,121.485,656.247,128.105,655.231,131.222z"/>
	<path fill="#2B883A" d="M424.609,104.863l-0.496,1.877l-21.667,82.132h46.971l14.944-56.645c2.807,0.511,10.633,1.152,13.393,1.197
		c26.896,0.439,51.73-6.878,71.063-21.223c2.295-1.672,4.453-3.527,6.543-5.461c0.66-0.612,1.307-1.241,1.947-1.877H424.609z"/>
	<path fill="#2B883A" d="M813.766,104.863l-17.861,38.418c-4.381,8.665-4.891,10.131-8.813,18.198h-1.197l-6.576-56.617h-46.014
		l17.373,85.587c0.551,3.581,0.297,5.674-0.176,7.471c-0.475,1.791-2.418,5.49-4.336,8.052c-5.051,6.745-8.51,11.724-21.244,20.2
		l-9.186,53.107c8.953-3.117,19.088-8.027,29.557-15.535c20.305-14.65,40.424-37.664,76.727-95.951l29.598-47.907l9.283-15.024
		H813.766z"/>
	<path fill="#2B883A" d="M475.963,89.943l13.764-52.171c3.521-0.898,8.125-1.495,17.092-1.495c23.016,0,32.951,11.059,28.063,29.589
		c-2.707,10.264-8.686,18.466-17.055,24.077h51.709c4.766-7.708,8.439-16.334,10.877-25.57c5.203-19.727,1.25-36.467-9.223-46.627
		C560.581,6.981,541.971,1.603,513.874,1.603c-27.799,0-48,1.794-62.68,4.185l-22.736,84.155H475.963z"/>
	<path fill="#2B883A" d="M592.112,86.202c3.531-4.118,14.182-9.037,25.387-12.187c8.85-2.488,17.994-3.694,24.58-3.753
		c25.605-0.231,25.92,11.063,23.791,19.134l-0.145,0.547H708.2c4.139-28.899-6.957-51.064-49.77-51.064
		c-24.248,0-44.664,6.206-56.922,11.605L592.112,86.202z"/>
	<polygon fill="#2B883A" points="776.872,89.943 772.186,42.467 721.788,42.467 730.942,89.943 	"/>
	<g>
		<path fill-rule="evenodd" clip-rule="evenodd" fill="#EF8200" d="M793.922,99.309H426.045l-1.961,7.55h374.141h43.074h68.221
			c3.48,0,6.637-2.044,8.061-5.221l20.734-46.271H813.614L793.922,99.309z"/>
		<path fill-rule="evenodd" clip-rule="evenodd" fill="#EF8200" d="M941.204,31.767H829.911c-3.482,0-6.639,2.044-8.063,5.221
			l-3.428,7.652h124.701l2.627-5.858C947.223,35.487,944.815,31.767,941.204,31.767z"/>
	</g>
</g>
</svg>
