<svg width="36" height="36" xmlns="http://www.w3.org/2000/svg">
    <defs>
        <radialGradient cx="26.563%" cy="107.702%" fx="26.563%" fy="107.702%" r="99.107%" gradientTransform="matrix(0 -1 .99973 0 -.811 1.343)" id="a">
            <stop stop-color="#FD5" offset="0%"/>
            <stop stop-color="#FD5" offset="10%"/>
            <stop stop-color="#FF543E" offset="50%"/>
            <stop stop-color="#C837AB" offset="100%"/>
        </radialGradient>
        <radialGradient cx="-16.751%" cy="7.204%" fx="-16.751%" fy="7.204%" r="44.302%" gradientTransform="scale(.99973 1) rotate(78.678 -.168 .072)" id="b">
            <stop stop-color="#3771C8" offset="0%"/>
            <stop stop-color="#3771C8" offset="12.8%"/>
            <stop stop-color="#60F" stop-opacity="0" offset="100%"/>
        </radialGradient>
    </defs>
    <g fill-rule="nonzero" fill="none">
        <path d="M18.006 0C10.49 0 8.293.008 7.866.043 6.324.171 5.364.414 4.319.935c-.806.4-1.441.864-2.068 1.514C1.108 3.634.416 5.093.166 6.827.044 7.668.008 7.84 0 12.139c-.003 1.433 0 3.32 0 5.849 0 7.509.009 9.704.045 10.13.124 1.501.36 2.446.858 3.478a7.583 7.583 0 0 0 4.914 4.015c.742.19 1.562.296 2.614.346.446.02 4.99.033 9.535.033 4.547 0 9.093-.005 9.528-.028 1.218-.057 1.925-.152 2.707-.354a7.537 7.537 0 0 0 4.915-4.023c.488-1.008.736-1.988.848-3.41.025-.31.035-5.254.035-10.192 0-4.938-.011-9.873-.035-10.183-.114-1.445-.362-2.417-.866-3.444a7.134 7.134 0 0 0-1.541-2.111c-1.19-1.138-2.647-1.83-4.383-2.08-.84-.122-1.008-.158-5.31-.165h-5.86z" fill="url(#a)"/>
        <path d="M18.006 0C10.49 0 8.293.008 7.866.043 6.324.171 5.364.414 4.319.935c-.806.4-1.441.864-2.068 1.514C1.108 3.634.416 5.093.166 6.827.044 7.668.008 7.84 0 12.139c-.003 1.433 0 3.32 0 5.849 0 7.509.009 9.704.045 10.13.124 1.501.36 2.446.858 3.478a7.583 7.583 0 0 0 4.914 4.015c.742.19 1.562.296 2.614.346.446.02 4.99.033 9.535.033 4.547 0 9.093-.005 9.528-.028 1.218-.057 1.925-.152 2.707-.354a7.537 7.537 0 0 0 4.915-4.023c.488-1.008.736-1.988.848-3.41.025-.31.035-5.254.035-10.192 0-4.938-.011-9.873-.035-10.183-.114-1.445-.362-2.417-.866-3.444a7.134 7.134 0 0 0-1.541-2.111c-1.19-1.138-2.647-1.83-4.383-2.08-.84-.122-1.008-.158-5.31-.165h-5.86z" fill="url(#b)"/>
        <path d="M17.998 4.707c-3.61 0-4.063.016-5.48.08-1.415.065-2.38.289-3.226.618a6.508 6.508 0 0 0-2.354 1.532 6.524 6.524 0 0 0-1.534 2.354c-.33.845-.554 1.811-.617 3.226-.064 1.417-.08 1.87-.08 5.48 0 3.609.016 4.06.08 5.478.065 1.415.289 2.38.617 3.226.34.874.794 1.615 1.533 2.354a6.507 6.507 0 0 0 2.354 1.534c.845.328 1.811.552 3.226.617 1.417.065 1.87.08 5.479.08 3.61 0 4.061-.015 5.479-.08 1.414-.065 2.381-.289 3.227-.617a6.502 6.502 0 0 0 2.352-1.534 6.524 6.524 0 0 0 1.534-2.354c.327-.845.551-1.811.618-3.226.063-1.417.08-1.87.08-5.478 0-3.61-.017-4.063-.08-5.48-.067-1.415-.291-2.38-.618-3.226a6.523 6.523 0 0 0-1.534-2.354 6.495 6.495 0 0 0-2.353-1.532c-.847-.33-1.813-.553-3.228-.618-1.418-.064-1.87-.08-5.48-.08h.005zm-1.193 2.395h1.193c3.548 0 3.969.012 5.37.076 1.296.06 1.999.276 2.467.458a4.11 4.11 0 0 1 1.527.994c.466.465.754.908.995 1.528.182.468.399 1.171.458 2.467.063 1.401.077 1.822.077 5.369 0 3.546-.014 3.967-.077 5.368-.06 1.296-.276 2-.458 2.467a4.11 4.11 0 0 1-.995 1.527 4.11 4.11 0 0 1-1.527.994c-.468.182-1.171.398-2.467.458-1.401.063-1.822.077-5.37.077-3.55 0-3.97-.014-5.37-.077-1.296-.06-2-.277-2.468-.459a4.116 4.116 0 0 1-1.529-.994 4.12 4.12 0 0 1-.994-1.527c-.182-.468-.399-1.171-.458-2.467-.064-1.401-.076-1.822-.076-5.37 0-3.55.012-3.968.076-5.37.06-1.295.276-1.998.458-2.467.24-.62.53-1.063.994-1.528a4.124 4.124 0 0 1 1.529-.995c.468-.182 1.172-.398 2.467-.458 1.226-.055 1.701-.072 4.178-.075v.004zm8.287 2.206a1.595 1.595 0 1 0 0 3.19 1.595 1.595 0 0 0 0-3.19zm-7.094 1.864a6.825 6.825 0 1 0 0 13.65 6.825 6.825 0 0 0 0-13.65zm0 2.395a4.43 4.43 0 1 1 0 8.86 4.43 4.43 0 0 1 0-8.86z" fill="#FFF"/>
    </g>
</svg>
