<svg width="16" height="16" xmlns="http://www.w3.org/2000/svg">
    <g fill-rule="nonzero" fill="none">
        <path d="M13.106 0H2.916A2.91 2.91 0 0 0 0 2.894v10.19a2.91 2.91 0 0 0 2.894 2.917h10.19A2.91 2.91 0 0 0 16 13.106V2.916A2.91 2.91 0 0 0 13.106 0" fill="#00B900"/>
        <path d="M13.8 7.297c0-2.607-2.613-4.728-5.826-4.728-3.213 0-5.825 2.121-5.825 4.728 0 2.337 2.072 4.294 4.872 4.664.189.04.447.125.513.288.046.171.052.351.019.526l-.083.499c-.026.147-.112.576.504.314.615-.263 3.356-1.976 4.579-3.383.844-.926 1.248-1.865 1.248-2.904" fill="#FFF"/>
        <path d="M6.791 6.037h-.409a.112.112 0 0 0-.111.112v2.54c0 .061.05.111.111.111h.41c.06 0 .11-.05.11-.112V6.15a.112.112 0 0 0-.11-.112M9.604 6.037h-.41a.112.112 0 0 0-.111.112v1.51L7.918 6.088a.044.044 0 0 0-.009-.012l-.007-.006h-.488a.112.112 0 0 0-.111.111v2.507c0 .062.05.112.111.112h.409c.062 0 .112-.05.112-.112V7.181l1.167 1.573c.008.011.017.02.029.028h.474c.06 0 .11-.05.11-.111V6.15a.112.112 0 0 0-.11-.113M5.807 8.167H4.69V6.15a.112.112 0 0 0-.111-.112h-.406a.112.112 0 0 0-.111.112v2.538c0 .03.011.058.032.079.02.02.049.032.078.032h1.635c.062 0 .112-.05.112-.112V8.28a.112.112 0 0 0-.112-.112M11.86 6.673c.062 0 .112-.05.112-.112v-.41a.112.112 0 0 0-.112-.111h-1.633a.112.112 0 0 0-.079.032.112.112 0 0 0-.032.078v2.538c0 .03.011.058.032.079.02.02.049.032.078.032h1.634c.062 0 .112-.05.112-.112V8.28a.112.112 0 0 0-.112-.112h-1.11v-.431h1.11c.062 0 .112-.05.112-.112v-.41a.112.112 0 0 0-.112-.111h-1.11v-.431h1.11z" fill="#00B900"/>
    </g>
</svg>
