<svg width="16" height="13" viewBox="0 0 16 13" xmlns="http://www.w3.org/2000/svg">
    <path d="M5.032 13.003c6.038 0 9.34-5.002 9.34-9.34 0-.142-.003-.283-.01-.424A6.676 6.676 0 0 0 16 1.539a6.546 6.546 0 0 1-1.885.517A3.294 3.294 0 0 0 15.558.24a6.584 6.584 0 0 1-2.084.797A3.283 3.283 0 0 0 7.88 4.031 9.321 9.321 0 0 1 1.113.6 3.28 3.28 0 0 0 2.13 4.983a3.258 3.258 0 0 1-1.486-.41v.042a3.284 3.284 0 0 0 2.633 3.218 3.287 3.287 0 0 1-1.482.056 3.286 3.286 0 0 0 3.066 2.28 6.585 6.585 0 0 1-4.077 1.405c-.265 0-.526-.015-.783-.045a9.292 9.292 0 0 0 5.032 1.474" fill="#1DA1F2" fill-rule="nonzero"/>
</svg>
